<mxfile host="app.diagrams.net" modified="2024-07-01T03:56:59.364Z" agent="Mozilla/5.0 (Windows NT 10.0; Win64; x64) AppleWebKit/537.36 (KHTML, like Gecko) Chrome/126.0.0.0 Safari/537.36" version="24.6.4" etag="3G6ls62oj5SzJYGmVx7D" type="github">
  <diagram name="第 1 页" id="i_Y4PKw0t_X387ri3_c1">
    <mxGraphModel>
      <root>
        <mxCell id="0" />
        <mxCell id="1" parent="0" />
      </root>
    </mxGraphModel>
  </diagram>
</mxfile>
